# xmcd
#
# Track frame offsets: 
#        150
#        25718
#        46191
#        78039
#        112608
#        141448
#        166560
#        197122
#        220318
#        242352
#        259175
#        273914
#        288466
#        300648
#        321370
#
# Disc length: 4651 seconds
#
# Revision: 2
# Processed by: cddbd v1.5.2PL0 Copyright (c) Steve Scherf et al.
# Submitted via: ExactAudioCopyFreeDBPlugin 1.0
#
DISCID=c312290f
DTITLE=Various Artist - This Is The Blues
DYEAR=2010
DGENRE=Blues
TTITLE0=Peter Green Splinter Group - Crawlin' King Snake
TTITLE1=Southside Johnny D. Peverett R. Price H. Brooks Mo Potts - If 
TTITLE1=You Be My Baby
TTITLE2=LLC - Bad Like Jesse James
TTITLE3=Savoy Brown - Little Red Rooster
TTITLE4=J. Bruce G. Moore G. Husband - Serves Me Right To Suffer
TTITLE5=G. Brooker A. Fairwether-Low M. Pegg H. Spinetti - Little Whee
TTITLE5=l
TTITLE6=R. Gallagher J. Cook R. Newman Spoon - Showbiz Blues
TTITLE7=Mick Clarke Lou Martin - One More Mile
TTITLE8=C. Clempson J. Bruce M. Feltham R. Leahy N. Wilkinson - I've G
TTITLE8=ot News For You
TTITLE9=M. Abrahams D. Lennox J. Leverton G. Walker - The Same Way
TTITLE10=C. Yngstrom U. Iversson C. Bjorklund F. Marstokk - The Supern
TTITLE10=atural
TTITLE11=Ken Hensley - Hellhound On My Trail
TTITLE12=L. Mitchell Stu Ham J. Mover - Fleetwood Mac
TTITLE13=L. Grosvenor J. Roden D. Moore M. Kellie S. Dolan - Merry Go 
TTITLE13=Round
TTITLE14=J. Beck S. Josiah E. Green Kgd Choir D. Moore D. Hadley R. Ba
TTITLE14=iley P. Brown - Will The Circle Be Unbroken
EXTD=
EXTT0=
EXTT1=
EXTT2=
EXTT3=
EXTT4=
EXTT5=
EXTT6=
EXTT7=
EXTT8=
EXTT9=
EXTT10=
EXTT11=
EXTT12=
EXTT13=
EXTT14=
PLAYORDER=
